<svg width="147" height="66" viewBox="0 0 147 66" fill="none" xmlns="http://www.w3.org/2000/svg">
<rect width="147" height="66" rx="4" transform="matrix(1 0 0 -1 0 66)" fill="#6278F7"/>
<path d="M32.979 23.648C34.4083 23.648 35.7097 23.8293 36.883 24.192C38.0563 24.5333 39.0163 25.0453 39.763 25.728C41.107 26.944 42.0457 28.2773 42.579 29.728C43.1337 31.1573 43.411 32.992 43.411 35.232C43.411 35.7013 43.347 36.128 43.219 36.512C43.1123 36.896 42.931 37.3867 42.675 37.984C42.355 38.6453 42.163 39.168 42.099 39.552C41.6723 40.2987 40.9683 41.0133 39.987 41.696C39.027 42.3787 37.9817 42.9333 36.851 43.36C35.7203 43.7867 34.7283 44 33.875 44C29.7577 44 26.8243 42.592 25.075 39.776C24.5843 38.9867 24.2003 38.1653 23.923 37.312C23.667 36.4587 23.539 35.6267 23.539 34.816C23.539 32.64 23.923 30.752 24.691 29.152C25.4803 27.5307 26.5683 26.272 27.955 25.376C28.787 24.8853 29.651 24.48 30.547 24.16C31.4643 23.8187 32.275 23.648 32.979 23.648ZM26.867 34.912C26.867 36.064 27.123 37.0133 27.635 37.76C28.1683 38.5067 28.979 39.3173 30.067 40.192C30.963 40.5333 31.571 40.7573 31.891 40.864C32.211 40.9493 32.5737 40.992 32.979 40.992C35.1337 40.992 36.851 40.4053 38.131 39.232C39.411 38.0587 40.051 36.448 40.051 34.4C40.051 32.7787 39.8697 31.4987 39.507 30.56C39.1443 29.6213 38.4937 28.7787 37.555 28.032C37.0643 27.6267 36.435 27.328 35.667 27.136C34.9203 26.944 34.1097 26.848 33.235 26.848C31.9123 26.848 30.771 27.2427 29.811 28.032C28.851 28.8 28.115 29.8027 27.603 31.04C27.1123 32.2773 26.867 33.568 26.867 34.912ZM51.4945 42.72C51.4945 43.0827 51.3558 43.4027 51.0785 43.68C50.8012 43.9573 50.4598 44.096 50.0545 44.096C49.4145 44.096 48.9452 43.9787 48.6465 43.744C48.3478 43.488 48.1985 43.0293 48.1985 42.368C48.1985 41.5787 48.1772 40.544 48.1345 39.264C48.0918 38.1973 48.0705 37.3013 48.0705 36.576C48.0705 36.2347 48.0918 35.7867 48.1345 35.232C48.1772 34.72 48.1985 34.336 48.1985 34.08C48.1345 33.6747 47.9745 33.344 47.7185 33.088C47.4625 32.8107 47.1318 32.672 46.7265 32.672C46.5345 32.672 46.3745 32.5867 46.2465 32.416C46.1185 32.224 46.0545 32.032 46.0545 31.84C46.0545 31.3493 46.2465 30.976 46.6305 30.72C47.0358 30.464 47.5158 30.336 48.0705 30.336C49.2225 30.336 50.0225 31.0187 50.4705 32.384C51.0252 31.744 51.6545 31.232 52.3585 30.848C53.0838 30.4427 53.7772 30.24 54.4385 30.24C55.2278 30.24 55.9425 30.4533 56.5825 30.88C57.2438 31.3067 57.5745 31.8827 57.5745 32.608C57.5745 33.0133 57.3932 33.4293 57.0305 33.856C56.6892 34.2827 56.3372 34.496 55.9745 34.496C55.7825 34.496 55.6118 34.4533 55.4625 34.368C55.3345 34.2613 55.1745 34.112 54.9825 33.92C54.7692 33.7067 54.5878 33.5573 54.4385 33.472C54.2892 33.3653 54.1185 33.312 53.9265 33.312C53.5852 33.312 53.2652 33.3653 52.9665 33.472C52.6678 33.5787 52.4652 33.7067 52.3585 33.856C52.0172 34.3893 51.7612 34.8693 51.5905 35.296C51.4412 35.7227 51.3665 36.1813 51.3665 36.672C51.3665 37.0347 51.3558 37.3227 51.3345 37.536L51.3025 39.36C51.3025 39.6373 51.3132 39.9467 51.3345 40.288C51.3558 40.6293 51.3772 40.8853 51.3985 41.056C51.4625 41.632 51.4945 42.1867 51.4945 42.72ZM71.7653 35.968C71.7653 36.9493 71.5199 37.7813 71.0293 38.464C70.5386 39.1253 69.8879 39.712 69.0773 40.224C67.9679 40.8213 66.6773 41.1307 65.2053 41.152C65.1199 41.408 65.0773 41.6747 65.0773 41.952C65.0773 42.208 65.2159 42.4 65.4933 42.528C65.7919 42.6347 66.3146 42.72 67.0613 42.784C67.6799 42.8267 68.3733 42.9653 69.1413 43.2C69.9306 43.4133 70.5493 43.6587 70.9973 43.936C71.5519 44.3413 71.9359 44.7787 72.1493 45.248C72.3839 45.7173 72.5013 46.304 72.5013 47.008C72.5013 47.9253 72.0746 48.6933 71.2213 49.312C70.3893 49.952 69.4079 50.4213 68.2773 50.72C67.1466 51.0187 66.1546 51.168 65.3013 51.168C64.2773 51.168 63.4026 51.04 62.6773 50.784C61.9733 50.5493 61.3013 50.2187 60.6613 49.792C60.2133 49.472 59.8613 49.0667 59.6053 48.576C59.3493 48.0853 59.2213 47.5733 59.2213 47.04C59.2213 46.5067 59.3919 45.9947 59.7333 45.504C60.0959 45.0133 60.5333 44.5867 61.0453 44.224C61.5573 43.8827 62.0373 43.648 62.4852 43.52C62.3146 43.3067 62.1866 43.1253 62.1013 42.976C62.0373 42.8053 62.0052 42.6133 62.0052 42.4C62.0052 41.6747 62.1866 41.0667 62.5493 40.576C61.5253 40.2347 60.7146 39.6267 60.1173 38.752C59.5413 37.8773 59.2533 36.8533 59.2533 35.68C59.2533 34.912 59.4346 34.2187 59.7973 33.6C60.1599 32.96 60.6613 32.352 61.3013 31.776C62.3893 30.7947 63.8933 30.304 65.8133 30.304C66.0693 30.304 66.4213 30.3467 66.8693 30.432C67.3173 30.5173 67.7546 30.6347 68.1813 30.784C68.8639 30.4853 69.6639 30.176 70.5813 29.856C71.4986 29.536 72.1173 29.376 72.4373 29.376C72.9279 29.376 73.2906 29.4613 73.5253 29.632C73.7813 29.7813 73.9093 30.1227 73.9093 30.656C73.9093 31.1467 73.6213 31.4987 73.0453 31.712C72.4906 31.9253 71.6479 32.128 70.5173 32.32C71.3493 33.3227 71.7653 34.5387 71.7653 35.968ZM65.1093 38.528C66.3466 38.528 67.2426 38.272 67.7973 37.76C68.3733 37.248 68.6613 36.48 68.6613 35.456C68.6613 33.7707 67.6693 32.928 65.6853 32.928C64.9173 32.928 64.3093 33.0133 63.8613 33.184C63.4346 33.3547 63.0826 33.6427 62.8053 34.048C62.4213 34.56 62.2293 35.2533 62.2293 36.128C62.2293 36.8107 62.5066 37.3867 63.0613 37.856C63.6373 38.304 64.3199 38.528 65.1093 38.528ZM62.2293 47.264C62.2293 47.6267 62.5599 47.936 63.2213 48.192C63.9039 48.4693 64.6293 48.608 65.3973 48.608C66.2506 48.608 67.1253 48.448 68.0213 48.128C68.9386 47.8293 69.3973 47.424 69.3973 46.912C69.3973 46.1653 68.7359 45.6853 67.4133 45.472C66.9439 45.3867 66.2613 45.2267 65.3653 44.992C65.2586 44.9707 65.1306 44.9387 64.9813 44.896C64.8533 44.8533 64.7146 44.8107 64.5653 44.768C64.0959 44.9387 63.5839 45.2907 63.0293 45.824C62.4959 46.3787 62.2293 46.8587 62.2293 47.264ZM90.2873 42.464C90.2873 42.9333 90.0313 43.328 89.5193 43.648C89.0286 43.968 88.5699 44.128 88.1433 44.128C87.3326 44.128 86.6819 44.032 86.1913 43.84C85.7219 43.6267 85.2846 43.2427 84.8793 42.688C84.3246 43.1787 83.5673 43.552 82.6073 43.808C81.6473 44.0427 80.7619 44.16 79.9513 44.16C78.6286 44.16 77.5406 43.808 76.6873 43.104C75.8339 42.3787 75.4073 41.3227 75.4073 39.936C75.4073 39.3387 75.5673 38.7947 75.8873 38.304C76.2073 37.792 76.6446 37.344 77.1993 36.96C77.8179 36.5547 78.5219 36.2453 79.3113 36.032C80.1006 35.7973 80.9219 35.68 81.7753 35.68C82.2233 35.68 82.7566 35.7653 83.3753 35.936C83.9939 36.1067 84.4739 36.288 84.8153 36.48V35.968C84.8153 34.816 84.5379 34.0267 83.9833 33.6C83.4286 33.152 82.5326 32.928 81.2953 32.928C80.9326 32.928 80.5699 33.0027 80.2073 33.152C79.8659 33.3013 79.4713 33.504 79.0233 33.76C78.4259 34.08 77.8606 34.24 77.3273 34.24C77.1353 34.24 76.9539 34.112 76.7833 33.856C76.6126 33.5787 76.5273 33.3333 76.5273 33.12C76.5273 32.5013 76.8153 31.968 77.3913 31.52C77.9886 31.072 78.6926 30.7413 79.5033 30.528C80.3139 30.2933 81.0393 30.176 81.6793 30.176C82.3193 30.176 83.0553 30.304 83.8873 30.56C84.7193 30.7947 85.4019 31.1253 85.9353 31.552C86.5753 32.1067 87.0659 32.7573 87.4073 33.504C87.7699 34.2293 87.9513 35.0293 87.9513 35.904C87.9513 36.1813 87.9299 36.5973 87.8873 37.152C87.8446 37.7493 87.8233 38.2613 87.8233 38.688C87.8233 38.88 87.8019 39.168 87.7593 39.552C87.7166 40.0213 87.6953 40.3947 87.6953 40.672C87.6953 40.928 87.7913 41.152 87.9833 41.344C88.1753 41.5147 88.3993 41.6 88.6553 41.6L89.5513 41.568C89.7859 41.568 89.9673 41.6533 90.0953 41.824C90.2233 41.9947 90.2873 42.208 90.2873 42.464ZM79.9833 41.632C80.9006 41.632 81.6686 41.536 82.2873 41.344C82.9059 41.152 83.6526 40.8 84.5273 40.288C84.6126 39.9253 84.6659 39.4453 84.6873 38.848C83.5139 38.2933 82.5433 38.016 81.7753 38.016C80.9006 38.016 80.1219 38.176 79.4393 38.496C78.7566 38.816 78.4153 39.3813 78.4153 40.192C78.4153 40.5973 78.5859 40.9387 78.9273 41.216C79.2686 41.4933 79.6206 41.632 79.9833 41.632ZM107.007 41.536C107.113 41.5787 107.284 41.632 107.519 41.696C107.753 41.76 107.924 41.824 108.031 41.888C108.137 41.952 108.191 42.048 108.191 42.176C108.212 42.688 108.02 43.1147 107.615 43.456C107.231 43.776 106.772 43.936 106.239 43.936C105.407 43.936 104.756 43.712 104.287 43.264C103.817 42.816 103.476 42.1333 103.263 41.216C103.177 40.8533 103.135 40.352 103.135 39.712C103.135 39.3493 103.156 38.7627 103.199 37.952C103.241 37.0987 103.263 36.416 103.263 35.904C103.263 34.9867 103.167 34.2933 102.975 33.824C102.783 33.3333 102.324 33.088 101.599 33.088C100.852 33.088 100.18 33.3867 99.5828 33.984C99.0068 34.5813 98.5161 35.4773 98.1108 36.672C97.5561 38.336 97.2468 40.544 97.1828 43.296C97.1828 43.4453 97.0228 43.6267 96.7028 43.84C96.4041 44.032 96.0414 44.128 95.6148 44.128C94.8254 44.128 94.3348 43.712 94.1428 42.88L94.1108 42.336C94.1108 42.144 94.1321 41.92 94.1748 41.664C94.4308 40.1707 94.5588 38.8693 94.5588 37.76C94.5588 37.2693 94.5481 36.8853 94.5268 36.608L94.4948 35.104C94.4948 34.592 94.3668 34.1013 94.1108 33.632C93.8548 33.1413 93.5561 32.896 93.2148 32.896C93.1081 32.896 92.9588 32.9387 92.7668 33.024C92.5748 33.088 92.4148 33.12 92.2868 33.12C92.0734 33.12 91.8388 33.0133 91.5828 32.8C91.3481 32.5867 91.2308 32.3627 91.2308 32.128C91.2308 31.68 91.3801 31.3173 91.6788 31.04C91.9988 30.784 92.3081 30.5813 92.6068 30.432C92.9268 30.2827 93.2894 30.208 93.6948 30.208C94.0361 30.208 94.3134 30.24 94.5268 30.304C94.7401 30.368 95.0281 30.5067 95.3908 30.72C95.6041 30.8267 95.8494 31.1253 96.1268 31.616C96.4041 32.1067 96.6174 32.8 96.7668 33.696C97.1934 32.9067 97.9081 32.0747 98.9108 31.2C99.6574 30.5173 100.735 30.176 102.143 30.176C103.423 30.176 104.436 30.6453 105.183 31.584C105.929 32.5013 106.303 33.7707 106.303 35.392C106.303 35.712 106.281 36.2347 106.239 36.96C106.175 37.536 106.143 38.144 106.143 38.784C106.143 40.2773 106.431 41.1947 107.007 41.536ZM123.179 33.728C123.35 34.0267 123.488 34.464 123.595 35.04C123.702 35.5947 123.755 36.096 123.755 36.544C123.755 37.12 123.691 37.76 123.563 38.464C123.435 39.168 123.318 39.712 123.211 40.096C121.739 42.784 119.563 44.128 116.683 44.128C115.616 44.128 114.528 43.776 113.419 43.072C112.31 42.368 111.542 41.5573 111.115 40.64C110.539 38.8267 110.251 37.664 110.251 37.152C110.251 36.2987 110.432 35.392 110.795 34.432C111.179 33.472 111.659 32.64 112.235 31.936C112.619 31.4453 113.28 31.0293 114.219 30.688C115.158 30.3253 116.011 30.144 116.779 30.144C118.272 30.144 119.531 30.432 120.555 31.008C121.6 31.5627 122.475 32.4693 123.179 33.728ZM120.395 38.88C120.502 38.6667 120.555 37.952 120.555 36.736C120.555 36.1173 120.438 35.5093 120.203 34.912C119.99 34.3147 119.67 33.8027 119.243 33.376C119.2 33.3333 119.083 33.2693 118.891 33.184C118.699 33.0773 118.432 32.9813 118.091 32.896C117.771 32.7893 117.398 32.736 116.971 32.736C115.776 32.736 114.902 33.216 114.347 34.176C113.792 35.136 113.515 36.224 113.515 37.44C113.515 37.632 113.579 38.0267 113.707 38.624C113.835 39.2213 113.931 39.6053 113.995 39.776C114.166 40.0747 114.507 40.4267 115.019 40.832C115.552 41.216 116.128 41.408 116.747 41.408C117.707 41.408 118.464 41.184 119.019 40.736C119.595 40.2667 120.054 39.648 120.395 38.88Z" fill="white"/>
</svg>
